<?xml version="1.0" encoding="utf-8"?>
<!-- Generator: Adobe Illustrator 16.0.0, SVG Export Plug-In . SVG Version: 6.00 Build 0)  -->
<!DOCTYPE svg PUBLIC "-//W3C//DTD SVG 1.0//EN" "http://www.w3.org/TR/2001/REC-SVG-20010904/DTD/svg10.dtd">
<svg version="1.0" id="Layer_1" xmlns="http://www.w3.org/2000/svg" xmlns:xlink="http://www.w3.org/1999/xlink" x="0px" y="0px"
	 width="595.28px" height="841.89px" viewBox="0 0 595.28 841.89" enable-background="new 0 0 595.28 841.89" xml:space="preserve">
<g>
	<g>
		<path fill-rule="evenodd" clip-rule="evenodd" fill="#FFFFFF" d="M21.48,565.611c0-166.063,0-332.125,0-498.214
			c280.753,0,561.506,0,842.331,0c0,198.374,0,396.774,0,595.175c-108.912,0-217.861,0-326.81,0
			c-0.844-0.138-1.683-0.343-2.532-0.399c-3.748-0.252-7.522-0.271-11.245-0.72c-14.964-1.803-29.226-6.124-42.907-12.388
			c-1.501-0.688-2.965-1.014-4.605-0.995c-17.597,0.197-35.192,0.338-52.788,0.542c-1.652,0.02-3.112-0.31-4.589-1.044
			c-15.459-7.694-30.9-15.425-46.436-22.961c-4.8-2.329-9.09-5.112-12.847-8.967c-5.697-5.844-12.07-10.953-18.563-15.915
			c-10.78-8.237-20.116-18.032-29.44-27.824c-0.983-1.032-1.922-1.647-3.469-1.669c-39.668-0.574-79.335-1.209-119.003-1.839
			c-2.479-0.04-4.96-0.076-7.434-0.23c-0.628-0.039-1.439-0.363-1.8-0.836c-1.014-1.329-2.059-2.713-2.691-4.24
			c-1.27-3.07-3.05-5.775-5.082-8.365c-0.465-0.593-0.785-1.403-0.888-2.153c-0.162-1.178-0.217-2.404-0.082-3.584
			c0.466-4.047,1.022-8.085,1.568-12.123c0.568-4.197,0.812-8.477,1.815-12.568c3.039-12.39,7.137-24.396,14.335-35.107
			c0.883-1.314,1.236-2.679,1.215-4.27c-0.041-3.115-0.037-6.243,0.196-9.347c0.363-4.835,2.032-9.351,3.805-13.818
			c0.371-0.934,0.76-1.86,1.185-2.899c0.576,0.371,0.914,0.57,1.233,0.797c2.285,1.623,4.602,2.223,7.035,0.281
			c0.238-0.189,0.564-0.336,0.864-0.37c1.813-0.206,2.896-1.43,3.569-2.892c1.03-2.24,1.831-4.586,2.689-6.902
			c0.324-0.872,0.539-1.785,0.813-2.711c0.926,0.069,1.645,0.211,2.349,0.157c1.744-0.132,3.506-0.231,5.215-0.571
			c2.089-0.416,3.375-1.827,3.658-3.942c0.2-1.493,0.323-3.033,0.191-4.527c-0.45-5.097-1.062-10.179-1.532-15.274
			c-0.107-1.16-0.25-2.543,0.255-3.484c0.921-1.719,0.866-3.364,0.461-5.085c-0.494-2.098-1.081-4.175-1.671-6.248
			c-0.434-1.523-0.939-3.026-1.505-4.835c1.232-1.136,2.492-2.242,3.687-3.415c1.068-1.048,1.432-2.313,0.731-3.714
			c-0.646-1.291-1.602-2.273-2.87-2.862c-1.005,1.691-1.886,3.173-2.495,4.198c-3.717-0.026-6.899-0.122-10.077-0.046
			c-2.219,0.052-3.908-0.801-5.102-2.575c-0.923-1.372-1.669-2.863-2.666-4.603c-0.576,1.213-1.404,2.233-1.503,3.321
			c-0.192,2.093,0.028,4.224,0.083,6.591c-1.973,0.938-4.171,2.073-6.438,3.047c-9.928,4.266-16.621,12.007-22.214,20.841
			c-2.54,4.011-2.35,4.134-6.832,2.751c-0.139-0.043-0.248-0.184-0.454-0.344c-0.096-1.592-0.076-3.271-0.323-4.911
			c-0.41-2.726-1.905-3.919-4.657-3.643c-1.491,0.149-2.962,0.627-4.409,1.065c-3.827,1.16-6.899-1.54-6.351-5.455
			c0.443-3.16,0.662-6.355,0.886-9.541c0.299-4.252-1.295-7.838-4.173-10.87c-1.373-1.447-2.867-2.785-4.357-4.114
			c-1.071-0.955-1.73-2.097-1.86-3.51c-0.163-1.765,0.749-2.889,2.511-3.166c0.394-0.062,0.798-0.056,1.196-0.094
			c2.622-0.252,3.493-1.092,3.762-3.734c0.097-0.952,0.084-1.917,0.097-2.875c0.015-1.179,0.004-2.359,0.004-3.66
			c0.776,0.046,1.398,0.088,2.021,0.118c1.518,0.074,3.037,0.223,4.552,0.188c1.364-0.031,1.833-0.722,1.588-2.046
			c-0.204-1.104-0.639-1.873-1.983-1.979c-1.971-0.155-3.925-0.525-5.942-0.812c-0.524-2.999-1.017-5.813-1.542-8.813
			c-5.214-0.301-10.303-0.596-15.631-0.904c-0.797,2.184-1.764,4.22-2.264,6.365c-0.559,2.402-1.677,3.55-4.243,3.429
			c-1.658-0.079-3.345,0.252-5.006,0.489c-1.926,0.274-2.331,1.142-1.504,2.799c0.51,1.021,1.297,1.261,2.35,1.244
			c2.693-0.042,5.387-0.014,8.219-0.014c0.081,1.249-0.029,2.246,0.249,3.12c0.303,0.952,0.889,1.845,1.485,2.667
			c2.197,3.033,1.594,5.781-1.72,7.449c-2.642,1.329-5.291,2.644-7.954,3.928c-2.652,1.279-4.488,3.333-5.611,5.995
			c-0.712,1.686-1.322,3.434-1.775,5.207c-1.599,6.251-1.618,12.67-1.854,19.061c-0.108,2.922,0.817,4.405,3.675,5.036
			c1.995,0.44,2.814,1.745,3.362,3.31c0.828,2.36,1.088,4.837,0.617,7.332c-0.56,2.963-2.265,4.432-5.271,4.482
			c-6.478,0.106-12.958,0.136-19.435,0.273c-3.033,0.065-6.091,0.096-9.087,0.51c-12.736,1.758-21.291,8.623-24.809,21.148
			c-1.119,3.983-1.594,8.146-2.408,12.217c-0.199,0.996-0.358,2.1-0.897,2.914c-3.869,5.852-5.959,12.356-7.194,19.175
			c-0.23,1.272-0.729,2.2-1.712,3.009c-2.533,2.082-5.028,4.211-7.508,6.356c-4.16,3.601-6.575,8.188-7.499,13.574
			c-0.192,1.12-0.171,2.276-0.281,3.896c2.312-3.26,3.478-4.376,5.124-5.116c-0.859,2.028-1.948,4.083-2.601,6.269
			c-0.839,2.813-0.407,5.083,0.861,6.746c1.242-2.368,2.443-4.708,3.691-7.022c1.111-2.061,2.465-3.941,4.455-5.253
			c0.673-0.443,1.369-1.058,2.418-0.622c-1.473,3.662-3.579,7.015-3.339,11.117c2.125-3.136,3.935-6.489,7.165-9.083
			c-0.12,2.617-0.392,4.912-0.284,7.189c0.109,2.297,0.596,4.575,0.917,6.862c0.163-0.012,0.325-0.023,0.488-0.035
			c0.134-1.341,0.26-2.684,0.405-4.024c0.693-6.402,2.105-12.619,5.03-18.4c1.252-2.477,1.891-5.076,2.146-7.806
			c0.149-1.592,0.269-3.189,0.51-4.768c0.186-1.214-0.044-2.865,1.468-3.254c1.454-0.374,2.252,1.02,2.965,2.039
			c3.084,4.403,5.107,9.209,5.306,14.669c0.176,4.823-0.409,9.574-1.262,14.308c-0.678,3.758-0.33,7.326,2.094,10.482
			c0.385,0.501,0.773,1.059,0.949,1.653c1.449,4.901,3.065,9.782,2.896,14.991c-0.059,1.798,0.595,3.177,2.207,3.9
			c1.12,0.503,1.499,1.333,1.702,2.393c0.195,1.021,0.418,2.036,0.612,3.056c0.619,3.256,0.464,3.412-2.867,3.354
			c-16.395-0.284-32.79-0.558-49.185-0.824C22.748,565.459,22.114,565.562,21.48,565.611z"/>
		<path fill-rule="evenodd" clip-rule="evenodd" d="M21.48,565.611c0.634-0.049,1.268-0.151,1.901-0.141
			c16.395,0.267,32.79,0.54,49.185,0.824c3.332,0.058,3.486-0.099,2.867-3.354c-0.194-1.02-0.417-2.035-0.612-3.056
			c-0.203-1.06-0.582-1.89-1.702-2.393c-1.612-0.724-2.266-2.103-2.207-3.9c0.17-5.209-1.446-10.09-2.896-14.991
			c-0.176-0.595-0.564-1.152-0.949-1.653c-2.424-3.156-2.772-6.725-2.094-10.482c0.854-4.733,1.438-9.484,1.262-14.308
			c-0.199-5.46-2.222-10.266-5.306-14.669c-0.713-1.02-1.512-2.413-2.965-2.039c-1.512,0.389-1.282,2.04-1.468,3.254
			c-0.242,1.578-0.361,3.176-0.51,4.768c-0.255,2.729-0.894,5.329-2.146,7.806c-2.925,5.781-4.337,11.998-5.03,18.4
			c-0.145,1.341-0.271,2.684-0.405,4.024c-0.163,0.012-0.326,0.023-0.488,0.035c-0.321-2.287-0.808-4.565-0.917-6.862
			c-0.108-2.277,0.164-4.572,0.284-7.189c-3.229,2.594-5.04,5.947-7.165,9.083c-0.24-4.103,1.866-7.455,3.339-11.117
			c-1.05-0.436-1.746,0.179-2.418,0.622c-1.99,1.312-3.343,3.192-4.455,5.253c-1.248,2.314-2.449,4.654-3.691,7.022
			c-1.268-1.663-1.7-3.934-0.861-6.746c0.652-2.186,1.742-4.24,2.601-6.269c-1.646,0.74-2.812,1.856-5.124,5.116
			c0.11-1.62,0.089-2.776,0.281-3.896c0.924-5.386,3.339-9.974,7.499-13.574c2.48-2.146,4.975-4.274,7.508-6.356
			c0.983-0.809,1.482-1.736,1.712-3.009c1.234-6.818,3.325-13.323,7.194-19.175c0.539-0.814,0.698-1.918,0.897-2.914
			c0.813-4.071,1.289-8.233,2.408-12.217c3.518-12.525,12.073-19.391,24.809-21.148c2.996-0.414,6.054-0.444,9.087-0.51
			c6.477-0.138,12.957-0.167,19.435-0.273c3.006-0.051,4.711-1.52,5.271-4.482c0.471-2.495,0.21-4.972-0.617-7.332
			c-0.548-1.564-1.367-2.869-3.362-3.31c-2.858-0.631-3.783-2.114-3.675-5.036c0.236-6.391,0.255-12.81,1.854-19.061
			c0.453-1.772,1.063-3.521,1.775-5.207c1.124-2.661,2.959-4.716,5.611-5.995c2.663-1.284,5.313-2.599,7.954-3.928
			c3.314-1.668,3.917-4.417,1.72-7.449c-0.596-0.823-1.182-1.716-1.485-2.667c-0.278-0.874-0.168-1.871-0.249-3.12
			c-2.832,0-5.526-0.028-8.219,0.014c-1.053,0.017-1.84-0.223-2.35-1.244c-0.827-1.657-0.422-2.524,1.504-2.799
			c1.661-0.236,3.348-0.568,5.006-0.489c2.566,0.122,3.684-1.026,4.243-3.429c0.5-2.145,1.466-4.181,2.264-6.365
			c5.328,0.308,10.417,0.603,15.631,0.904c0.525,3,1.017,5.814,1.542,8.813c2.018,0.287,3.972,0.657,5.942,0.812
			c1.345,0.106,1.779,0.874,1.983,1.979c0.245,1.324-0.224,2.015-1.588,2.046c-1.515,0.035-3.034-0.114-4.552-0.188
			c-0.623-0.03-1.246-0.072-2.021-0.118c0,1.301,0.011,2.481-0.004,3.66c-0.012,0.958,0,1.923-0.097,2.875
			c-0.27,2.642-1.14,3.482-3.762,3.734c-0.398,0.038-0.802,0.033-1.196,0.094c-1.762,0.277-2.673,1.401-2.511,3.166
			c0.13,1.414,0.789,2.555,1.86,3.51c1.49,1.33,2.984,2.667,4.357,4.114c2.878,3.032,4.472,6.617,4.173,10.87
			c-0.225,3.186-0.443,6.38-0.886,9.541c-0.549,3.915,2.523,6.615,6.351,5.455c1.447-0.438,2.918-0.916,4.409-1.065
			c2.752-0.276,4.248,0.917,4.657,3.643c0.247,1.64,0.227,3.319,0.323,4.911c0.206,0.16,0.315,0.301,0.454,0.344
			c4.482,1.383,4.292,1.26,6.832-2.751c5.593-8.834,12.286-16.575,22.214-20.841c2.267-0.974,4.465-2.108,6.438-3.047
			c-0.055-2.368-0.276-4.499-0.083-6.591c0.1-1.087,0.928-2.108,1.503-3.321c0.997,1.74,1.743,3.231,2.666,4.603
			c1.193,1.774,2.883,2.627,5.102,2.575c3.178-0.075,6.359,0.02,10.077,0.046c0.609-1.025,1.49-2.507,2.495-4.198
			c1.268,0.588,2.224,1.571,2.87,2.862c0.701,1.401,0.337,2.666-0.731,3.714c-1.195,1.172-2.455,2.279-3.687,3.415
			c0.566,1.809,1.072,3.313,1.505,4.835c0.591,2.073,1.178,4.15,1.671,6.248c0.405,1.721,0.46,3.366-0.461,5.085
			c-0.505,0.941-0.362,2.324-0.255,3.484c0.47,5.096,1.082,10.178,1.532,15.274c0.132,1.494,0.009,3.034-0.191,4.527
			c-0.283,2.115-1.569,3.526-3.658,3.942c-1.709,0.34-3.471,0.439-5.215,0.571c-0.704,0.054-1.423-0.088-2.349-0.157
			c-0.274,0.926-0.489,1.839-0.813,2.711c-0.859,2.316-1.66,4.662-2.689,6.902c-0.673,1.462-1.755,2.686-3.569,2.892
			c-0.3,0.034-0.626,0.181-0.864,0.37c-2.434,1.941-4.75,1.342-7.035-0.281c-0.319-0.227-0.657-0.426-1.233-0.797
			c-0.425,1.039-0.814,1.966-1.185,2.899c-1.772,4.468-3.441,8.983-3.805,13.818c-0.233,3.104-0.237,6.231-0.196,9.347
			c0.021,1.591-0.332,2.955-1.215,4.27c-7.198,10.711-11.296,22.718-14.335,35.107c-1.003,4.092-1.247,8.371-1.815,12.568
			c-0.546,4.038-1.102,8.076-1.568,12.123c-0.136,1.18-0.08,2.406,0.082,3.584c0.103,0.75,0.422,1.561,0.888,2.153
			c2.032,2.59,3.812,5.295,5.082,8.365c0.632,1.527,1.677,2.911,2.691,4.24c0.361,0.473,1.172,0.797,1.8,0.836
			c2.473,0.154,4.955,0.19,7.434,0.23c39.668,0.63,79.335,1.265,119.003,1.839c1.547,0.021,2.485,0.637,3.469,1.669
			c9.324,9.792,18.66,19.587,29.44,27.824c6.493,4.962,12.866,10.071,18.563,15.915c3.757,3.854,8.047,6.638,12.847,8.967
			c15.535,7.536,30.977,15.267,46.436,22.961c1.477,0.734,2.937,1.063,4.589,1.044c17.596-0.204,35.191-0.345,52.788-0.542
			c1.641-0.019,3.104,0.308,4.605,0.995c13.682,6.264,27.943,10.585,42.907,12.388c3.723,0.448,7.497,0.468,11.245,0.72
			c0.85,0.057,1.688,0.262,2.532,0.399c-171.84,0-343.681,0-515.521,0C21.48,630.251,21.48,597.931,21.48,565.611z M152.689,497.718
			c-2.691,0.142-4.914,0.309-7.139,0.366c-4.394,0.112-8.79,0.265-13.183,0.219c-8.346-0.086-16.039-2.532-23.22-6.719
			c-3.838-2.237-6.964-1.106-8.551,3.077c-0.339,0.893-0.595,1.823-0.825,2.751c-1.417,5.712-4.169,10.693-8.178,14.985
			c-1.2,1.285-2.455,2.518-3.676,3.783c-2.469,2.559-4.528,5.403-5.646,8.806c-0.441,1.344-0.695,2.797-0.729,4.208
			c-0.019,0.782,0.375,1.837,0.955,2.324c1.889,1.584,2.845,3.655,3.442,5.91c1.375,5.183,4.045,9.713,6.976,14.107
			c0.925,1.388,1.976,2.754,3.214,3.855c3.252,2.894,6.03,6.182,8.455,9.763c0.911,1.344,1.924,1.838,3.537,1.858
			c15.027,0.188,30.055,0.463,45.082,0.699c0.683,0.011,1.368-0.096,2.062-0.148c0.412-2.54-0.046-4.802-0.47-7.074
			c-0.172-0.928-0.319-1.897-0.244-2.828c0.486-5.974,1.042-11.942,1.565-17.913c0.669-7.647,1.186-15.298,0.752-22.984
			c-0.065-1.163-0.325-2.138-1.036-3.087c-2.075-2.767-3.124-5.912-3.14-9.384C152.682,502.228,152.689,500.162,152.689,497.718z
			 M76.761,531.648c-1.555,1.328-2.229,3.006-2.934,4.63c-0.319,0.735-0.411,1.712-0.237,2.496
			c1.039,4.672,2.166,9.324,3.303,13.974c0.624,2.549,1.145,5.149,3.042,7.176c0.315,0.336,0.499,0.82,0.665,1.265
			c0.895,2.395,3.284,3.388,4.83,5.169c0.128,0.148,0.439,0.189,0.667,0.19c2.93,0.013,5.861,0.009,8.808,0.009
			c0.168-0.62,0.294-1.077,0.416-1.535c0.587-2.222,0.101-4.005-1.454-5.865c-4.606-5.511-8.964-11.229-13.437-16.852
			c-0.387-0.486-0.828-1.023-1.366-1.276c-1.343-0.633-1.81-1.752-1.934-3.074c-0.126-1.35-0.144-2.708-0.218-4.062
			C76.871,533.143,76.812,532.396,76.761,531.648z M163.439,568c1.22,0,2.416,0.043,3.606-0.022
			c0.432-0.023,0.963-0.191,1.257-0.484c2.119-2.114,2.357-6.537,0.241-8.659c-1.083-1.087-1.381-2.278-1.572-3.598
			c-0.802-5.545-0.987-11.121-1.038-16.722c-0.038-4.215-0.554-8.428-0.909-12.637c-0.052-0.617-0.391-1.209-0.597-1.813
			c-0.621,0.758-0.817,1.432-0.917,2.119c-1.143,7.821-2.141,15.665-3.458,23.456c-0.63,3.727-0.913,7.18,1.443,10.465
			c0.597,0.832,0.992,2.22,0.746,3.158C161.774,565.049,162.372,566.355,163.439,568z M210.395,446.099
			c-0.09-0.373-0.139-0.689-0.244-0.988c-1.006-2.855-1.996-5.719-3.056-8.556c-0.215-0.576-0.65-1.1-1.075-1.563
			c-2.147-2.337-4.188-2.051-5.188,0.958c-1.104,3.32-1.843,6.762-2.724,10.154c-0.078,0.301-0.122,0.656-0.039,0.945
			c0.967,3.381,2.015,6.748,4.294,9.518c1.375,1.669,2.929,1.649,4.186-0.059C208.829,453.41,209.575,449.712,210.395,446.099z
			 M145.365,423.433c-0.757,1.957-0.851,5.217-0.179,7.611c1.693,6.039,9.639,8.342,14.515,4.146
			c-2.897-2.961-5.789-5.922-8.692-8.871c-0.217-0.222-0.5-0.396-0.781-0.535C148.61,424.99,146.983,424.212,145.365,423.433z
			 M152.976,426.068c1.284,2.111,6.564,6.013,9.832,7.219c0.826-0.904,1.708-1.871,2.725-2.984
			C161.428,428.089,157.566,426.091,152.976,426.068z M196.676,452.241c-0.2,0.533-0.412,1.019-0.564,1.522
			c-0.299,0.984-0.578,1.975-0.834,2.971c-0.056,0.215-0.029,0.481,0.046,0.693c0.754,2.14,4.771,3.186,6.547,1.931
			C200.17,457.026,198.467,454.694,196.676,452.241z"/>
		<path fill-rule="evenodd" clip-rule="evenodd" fill="#FFFFFF" d="M152.689,497.718c0,2.443-0.008,4.51,0.001,6.575
			c0.016,3.472,1.065,6.617,3.14,9.384c0.711,0.949,0.971,1.924,1.036,3.087c0.434,7.687-0.083,15.337-0.752,22.984
			c-0.523,5.971-1.079,11.939-1.565,17.913c-0.076,0.931,0.071,1.9,0.244,2.828c0.423,2.272,0.882,4.534,0.47,7.074
			c-0.693,0.053-1.378,0.159-2.062,0.148c-15.027-0.236-30.054-0.511-45.082-0.699c-1.613-0.021-2.626-0.515-3.537-1.858
			c-2.425-3.581-5.203-6.869-8.455-9.763c-1.238-1.102-2.289-2.468-3.214-3.855c-2.931-4.395-5.601-8.925-6.976-14.107
			c-0.598-2.255-1.554-4.326-3.442-5.91c-0.581-0.487-0.974-1.542-0.955-2.324c0.035-1.411,0.288-2.864,0.729-4.208
			c1.118-3.402,3.177-6.247,5.646-8.806c1.221-1.266,2.476-2.498,3.676-3.783c4.009-4.292,6.762-9.273,8.178-14.985
			c0.23-0.928,0.486-1.858,0.825-2.751c1.587-4.184,4.713-5.314,8.551-3.077c7.181,4.187,14.874,6.633,23.22,6.719
			c4.393,0.046,8.789-0.106,13.183-0.219C147.776,498.027,149.998,497.86,152.689,497.718z"/>
		<path fill-rule="evenodd" clip-rule="evenodd" fill="#FFFFFF" d="M76.761,531.648c0.051,0.748,0.11,1.495,0.151,2.244
			c0.074,1.354,0.092,2.712,0.218,4.062c0.124,1.322,0.59,2.441,1.934,3.074c0.538,0.253,0.979,0.79,1.366,1.276
			c4.473,5.623,8.831,11.341,13.437,16.852c1.555,1.86,2.041,3.644,1.454,5.865c-0.121,0.458-0.248,0.915-0.416,1.535
			c-2.947,0-5.877,0.004-8.808-0.009c-0.227-0.001-0.539-0.042-0.667-0.19c-1.546-1.781-3.935-2.774-4.83-5.169
			c-0.166-0.444-0.35-0.929-0.665-1.265c-1.897-2.026-2.418-4.627-3.042-7.176c-1.137-4.649-2.265-9.302-3.303-13.974
			c-0.174-0.784-0.082-1.761,0.237-2.496C74.531,534.654,75.206,532.976,76.761,531.648z"/>
		<path fill-rule="evenodd" clip-rule="evenodd" fill="#FFFFFF" d="M163.439,568c-1.068-1.645-1.666-2.95-1.197-4.737
			c0.246-0.938-0.149-2.326-0.746-3.158c-2.356-3.285-2.073-6.738-1.443-10.465c1.317-7.791,2.316-15.635,3.458-23.456
			c0.101-0.688,0.296-1.361,0.917-2.119c0.206,0.604,0.545,1.196,0.597,1.813c0.355,4.209,0.871,8.422,0.909,12.637
			c0.051,5.601,0.235,11.177,1.038,16.722c0.191,1.319,0.488,2.511,1.572,3.598c2.116,2.122,1.877,6.545-0.241,8.659
			c-0.294,0.293-0.825,0.461-1.257,0.484C165.855,568.042,164.66,568,163.439,568z"/>
		<path fill-rule="evenodd" clip-rule="evenodd" fill="#FFFFFF" d="M210.395,446.099c-0.82,3.613-1.566,7.311-3.847,10.41
			c-1.257,1.708-2.811,1.728-4.186,0.059c-2.28-2.77-3.328-6.137-4.294-9.518c-0.083-0.289-0.039-0.645,0.039-0.945
			c0.881-3.393,1.62-6.834,2.724-10.154c1.001-3.009,3.041-3.295,5.188-0.958c0.425,0.463,0.86,0.986,1.075,1.563
			c1.06,2.837,2.05,5.7,3.056,8.556C210.256,445.41,210.305,445.726,210.395,446.099z"/>
		<path fill-rule="evenodd" clip-rule="evenodd" fill="#FFFFFF" d="M145.365,423.433c1.618,0.779,3.245,1.557,4.863,2.352
			c0.281,0.139,0.564,0.313,0.781,0.535c2.903,2.949,5.795,5.91,8.692,8.871c-4.876,4.195-12.822,1.893-14.515-4.146
			C144.515,428.65,144.608,425.39,145.365,423.433z"/>
		<path fill-rule="evenodd" clip-rule="evenodd" fill="#FFFFFF" d="M152.976,426.068c4.591,0.023,8.452,2.021,12.556,4.234
			c-1.017,1.113-1.898,2.08-2.725,2.984C159.54,432.081,154.259,428.179,152.976,426.068z"/>
		<path fill-rule="evenodd" clip-rule="evenodd" fill="#FFFFFF" d="M196.676,452.241c1.791,2.453,3.494,4.785,5.195,7.117
			c-1.776,1.255-5.793,0.209-6.547-1.931c-0.075-0.212-0.102-0.479-0.046-0.693c0.256-0.996,0.535-1.986,0.834-2.971
			C196.265,453.259,196.477,452.774,196.676,452.241z"/>
	</g>
</g>
</svg>
